#!OML:ASF G:\ViconDB\ViconDB\414\test\team2\shane.ASF
:FULLY-SPECIFIED
:DEGREES
157
root 1.64561 16.866 -13.2698 -8.38144 5.43381 -4.1934
lowerback 8.05105 1.41116 3.58608
upperback 5.36549 2.11682 4.02861
thorax 1.02414 1.09487 2.00204
lowerneck -6.04438 -5.78135 -11.3663
upperneck 37.1116 -2.23193 -10.5723
head 13.9569 -3.74418 -2.59445
rclavicle -1.86858e-014 -2.38542e-015
rhumerus -23.8347 -1.22903 -47.7763
rradius 122.552
rwrist 159.092
rhand -18.2426 4.14236
rfingers 7.12502
rthumb 8.0362 -25.6849
lclavicle -1.86858e-014 -2.38542e-015
lhumerus -50.2498 -26.2717 101.217
lradius 43.4709
lwrist -15.0197
lhand -38.953 5.73258
lfingers 7.12502
lthumb -11.9583 35.371
rfemur 15.0434 -13.8674 19.287
rtibia 19.1168
rfoot -23.4145 0.881511
rtoes -10.0295
lfemur -18.0321 9.38102 -10.1904
ltibia 40.6207
lfoot -27.1714 -11.6534
ltoes -10.3959
158
root 1.63959 16.8758 -13.0878 -8.01757 4.95666 -4.0451
lowerback 7.87922 1.5536 3.42168
upperback 5.25188 2.28965 3.88509
thorax 0.997355 1.17822 1.93539
lowerneck -5.97402 -5.62591 -11.3991
upperneck 35.4652 -2.33792 -10.1842
head 13.1846 -3.67227 -2.32851
rclavicle -1.86858e-014 -2.38542e-015
rhumerus -23.8347 -1.22903 -47.7763
rradius 122.552
rwrist 159.092
rhand -18.2426 4.14236
rfingers 7.12502
rthumb 8.0362 -25.6849
lclavicle -1.86858e-014 -2.38542e-015
lhumerus -50.2498 -26.2717 101.217
lradius 43.4709
lwrist -15.0197
lhand -38.953 5.73258
lfingers 7.12502
lthumb -11.9583 35.371
rfemur 16.3568 -13.5743 19.218
rtibia 16.8758
rfoot -22.8496 1.07615
rtoes -9.86013
lfemur -18.6823 9.3165 -10.3692
ltibia 37.8085
lfoot -27.5911 -12.4995
ltoes -10.9697
159
root 1.63848 16.8798 -12.91 -7.72579 4.58046 -3.88416
lowerback 7.94675 1.68505 3.31845
upperback 5.1073 2.46774 3.765
thorax 0.808448 1.26406 1.85036
lowerneck -6.05779 -5.54429 -11.6694
upperneck 33.9088 -2.49042 -9.6977
head 12.5339 -3.6433 -2.02154
rclavicle -1.86858e-014 -2.38542e-015
rhumerus -23.8347 -1.22903 -47.7763
rradius 122.552
rwrist 159.092
rhand -18.2426 4.14236
rfingers 7.12502
rthumb 8.0362 -25.6849
lclavicle -1.86858e-014 -2.38542e-015
lhumerus -50.2498 -26.2717 101.217
lradius 43.4709
lwrist -15.0197
lhand -38.953 5.73258
lfingers 7.12502
lthumb -11.9583 35.371
rfemur 17.7971 -13.4281 19.0345
rtibia 14.4908
rfoot -22.1206 1.29415
rtoes -9.85963
lfemur -19.3351 9.15391 -10.545
ltibia 35.2631
lfoot -27.991 -13.2757
ltoes -11.0657
160
root 1.62915 16.8761 -12.7297 -7.42873 4.08203 -3.92926
lowerback 7.91193 1.90478 3.11534
upperback 4.92799 2.75278 3.75325
thorax 0.629307 1.40008 1.9275
lowerneck -5.87359 -5.52337 -11.7517
upperneck 32.2484 -2.81728 -9.20426
head 11.8023 -3.6554 -1.76307
rclavicle -1.86858e-014 -2.38542e-015
rhumerus -23.8347 -1.22903 -47.7763
rradius 122.552
rwrist 159.092
rhand -18.2426 4.14236
rfingers 7.12502
rthumb 8.0362 -25.6849
lclavicle -1.86858e-014 -2.38542e-015
lhumerus -50.2498 -26.2717 101.217
lradius 43.4709
lwrist -15.0197
lhand -38.953 5.73258
lfingers 7.12502
lthumb -11.9583 35.371
rfemur 19.3381 -13.1249 19.1658
rtibia 11.7909
rfoot -21.2487 1.43448
rtoes -10.024
lfemur -20.1167 9.22989 -10.3978
ltibia 33.0675
lfoot -28.3756 -14.2856
ltoes -11.6224
161
root 1.62054 16.8695 -12.5531 -7.10538 3.60963 -3.93544
lowerback 7.70661 1.7289 4.86382
upperback 4.87697 2.60881 2.16783
thorax 0.850537 1.38729 -0.662041
lowerneck -5.92642 -5.1636 -10.0116
upperneck 30.3413 -3.12598 -8.15866
head 10.9536 -3.39964 -1.59717
rclavicle 3.90612e-014 2.5842e-014
rhumerus -27.3635 -24.4059 -52.4783
rradius 128.859
rwrist 144.735
rhand -11.2973 13.628
rfingers 7.12502
rthumb 14.7341 -15.8284
lclavicle -1.86858e-014 -2.38542e-015
lhumerus -50.2498 -26.2717 101.217
lradius 43.4709
lwrist -15.0197
lhand -38.953 5.73258
lfingers 7.12502
lthumb -11.9583 35.371
rfemur 21.1698 -12.696 19.2901
rtibia 8.31716
rfoot -19.8556 1.5656
rtoes -10.292
lfemur -21.0138 9.26927 -10.2939
ltibia 31.2836
lfoot -28.6578 -15.057
ltoes -11.8265
162
root 1.62196 16.8577 -12.3764 -6.89348 3.12514 -4.06193
lowerback 7.69761 1.80467 5.0272
upperback 4.77047 2.72228 2.06639
thorax 0.763905 1.44521 -0.866692
lowerneck -5.62741 -5.0135 -10.1265
upperneck 28.3082 -3.29122 -7.55638
head 10.1277 -3.32677 -1.29169
rclavicle 1.39149e-015 -2.18663e-014
rhumerus -26.428 -23.9593 -53.1247
rradius 129.45
rwrist 151.075
rhand -9.38171 15.155
rfingers 7.12502
rthumb 16.579 -14.1568
lclavicle -1.86858e-014 -2.38542e-015
lhumerus -50.2498 -26.2717 101.217
lradius 43.4709
lwrist -15.0197
lhand -38.953 5.73258
lfingers 7.12502
lthumb -11.9583 35.371
rfemur 24.8521 -12.2554 19.4772
rtibia 1.00235
rfoot -16.3512 1.9149
rtoes -10.3285
lfemur -21.9632 9.55856 -10.0817
ltibia 29.9662
lfoot -28.551 -16.0584
ltoes -11.8637
163
root 1.62111 16.8425 -12.1999 -6.6964 2.58218 -4.20507
lowerback 7.68346 1.88437 5.09526
upperback 4.72483 2.83218 2.00087
thorax 0.737156 1.50078 -0.979365
lowerneck -5.43351 -4.83469 -9.97894
upperneck 26.2193 -3.39481 -7.09302
head 9.32114 -3.2155 -1.08877
rclavicle 3.57067e-014 3.4191e-014
rhumerus -25.4219 -23.7419 -53.0436
rradius 128.929
rwrist 152.115
rhand -9.15103 15.3474
rfingers 7.12502
rthumb 16.8011 -13.9457
lclavicle -1.86858e-014 -2.38542e-015
lhumerus -50.2498 -26.2717 101.217
lradius 43.4709
lwrist -15.0197
lhand -38.953 5.73258
lfingers 7.12502
lthumb -11.9583 35.371
rfemur 25.7172 -11.7584 19.685
rtibia 6.36111e-015
rfoot -16.244 1.87729
rtoes -10.5021
lfemur -22.9979 10.0122 -9.84168
ltibia 29.094
lfoot -28.3011 -16.9583
ltoes -12.1282
